<?xml version="1.0" standalone="no"?>
<!DOCTYPE svg PUBLIC "-//W3C//DTD SVG 20010904//EN"
 "http://www.w3.org/TR/2001/REC-SVG-20010904/DTD/svg10.dtd">
<svg version="1.0" xmlns="http://www.w3.org/2000/svg"
 width="512.000000pt" height="512.000000pt" viewBox="0 0 512.000000 512.000000"
 preserveAspectRatio="xMidYMid meet">
<metadata>
Created by potrace 1.11, written by Peter Selinger 2001-2013
</metadata>
<g transform="translate(0.000000,512.000000) scale(0.100000,-0.100000)"
fill="#ffffff" stroke="none">
<path d="M224 5066 c-58 -18 -126 -68 -163 -118 -66 -89 -61 84 -59 -2428 l3
-2285 25 -50 c31 -64 91 -124 155 -155 l50 -25 2325 0 2325 0 63 34 c70 38
100 69 140 145 l27 51 0 1165 c0 1122 -1 1167 -19 1214 -24 63 -86 131 -149
162 -37 19 -267 69 -980 210 -513 102 -942 188 -954 191 l-22 5 -3 647 -3 646
-33 67 c-37 75 -83 121 -157 153 -39 18 -302 61 -1245 204 -657 100 -1215 181
-1240 180 -25 0 -63 -6 -86 -13z m392 -241 c164 -25 416 -63 559 -85 143 -22
545 -82 894 -135 349 -53 642 -100 652 -106 10 -5 25 -19 33 -31 14 -20 16
-243 16 -2140 l0 -2118 -320 0 -320 0 0 509 c0 599 3 579 -95 676 -94 95 -94
95 -544 95 -421 0 -427 -1 -516 -68 -36 -27 -60 -56 -85 -106 l-35 -69 -3
-518 -3 -519 -270 0 c-303 0 -324 4 -353 65 -14 30 -16 253 -16 2263 0 1632 3
2238 11 2261 11 30 59 71 85 71 5 0 145 -20 310 -45z m2540 -1895 c82 -16 493
-97 914 -180 421 -83 776 -158 788 -166 54 -35 52 3 52 -1180 0 -1215 4 -1146
-65 -1178 -29 -14 -135 -16 -944 -16 l-911 0 0 1375 c0 756 4 1375 8 1375 5 0
76 -13 158 -30z m-1269 -1683 l28 -27 3 -505 3 -505 -426 0 -425 0 0 498 c1
393 3 502 14 521 28 50 35 51 418 48 l358 -2 27 -28z"/>
<path d="M689 4035 c-56 -30 -62 -119 -13 -166 l26 -24 258 0 258 0 26 24 c50
47 42 137 -15 166 -40 21 -502 21 -540 0z"/>
<path d="M1739 4021 c-47 -48 -37 -130 21 -164 24 -15 62 -17 265 -17 266 0
285 4 311 67 19 43 5 93 -33 123 -24 19 -40 20 -280 20 l-255 0 -29 -29z"/>
<path d="M689 3395 c-56 -30 -62 -119 -13 -166 l26 -24 258 0 258 0 26 24 c50
47 42 137 -15 166 -40 21 -502 21 -540 0z"/>
<path d="M1739 3381 c-47 -48 -37 -130 21 -164 24 -15 62 -17 265 -17 266 0
285 4 311 67 19 43 5 93 -33 123 -24 19 -40 20 -280 20 l-255 0 -29 -29z"/>
<path d="M689 2755 c-56 -30 -62 -119 -13 -166 l26 -24 258 0 258 0 26 24 c50
47 42 137 -15 166 -40 21 -502 21 -540 0z"/>
<path d="M1739 2741 c-47 -48 -37 -130 21 -164 24 -15 62 -17 265 -17 266 0
285 4 311 67 19 43 5 93 -33 123 -24 19 -40 20 -280 20 l-255 0 -29 -29z"/>
<path d="M689 2115 c-56 -30 -62 -119 -13 -166 l26 -24 258 0 258 0 26 24 c50
47 42 137 -15 166 -40 21 -502 21 -540 0z"/>
<path d="M1739 2101 c-47 -48 -37 -130 21 -164 24 -15 62 -17 265 -17 266 0
285 4 311 67 19 43 5 93 -33 123 -24 19 -40 20 -280 20 l-255 0 -29 -29z"/>
<path d="M3659 2101 c-47 -48 -37 -130 21 -164 24 -15 62 -17 265 -17 266 0
285 4 311 67 19 43 5 93 -33 123 -24 19 -40 20 -280 20 l-255 0 -29 -29z"/>
<path d="M3659 1461 c-47 -48 -37 -130 21 -164 24 -15 62 -17 265 -17 266 0
285 4 311 67 19 43 5 93 -33 123 -24 19 -40 20 -280 20 l-255 0 -29 -29z"/>
<path d="M3659 821 c-47 -48 -37 -130 21 -164 24 -15 62 -17 265 -17 266 0
285 4 311 67 19 43 5 93 -33 123 -24 19 -40 20 -280 20 l-255 0 -29 -29z"/>
</g>
</svg>
