<?xml version="1.0" encoding="UTF-8" standalone="no"?>
<svg
   xmlns:dc="http://purl.org/dc/elements/1.1/"
   xmlns:cc="http://creativecommons.org/ns#"
   xmlns:rdf="http://www.w3.org/1999/02/22-rdf-syntax-ns#"
   xmlns:svg="http://www.w3.org/2000/svg"
   xmlns="http://www.w3.org/2000/svg"
   viewBox="0 0 158.72 156.8"
   height="156.8"
   width="158.72"
   id="svg99"
   version="1.1">
  <metadata
     id="metadata105">
    <rdf:RDF>
      <cc:Work
         rdf:about="">
        <dc:format>image/svg+xml</dc:format>
        <dc:type
           rdf:resource="http://purl.org/dc/dcmitype/StillImage" />
        <dc:title></dc:title>
      </cc:Work>
    </rdf:RDF>
  </metadata>
  <defs
     id="defs103" />
  <path
     id="path3906"
     d="m 33.880932,155.44236 c -2.24509,-0.1069 -2.33558,-0.14312 -2.83858,-1.13642 -0.28577,-0.5643 -0.74052,-1.278 -1.01058,-1.586 -0.27005,-0.308 -0.76935,-0.56 -1.10954,-0.56 -0.54969,0 -0.59345,-0.15137 -0.39324,-1.36 0.12391,-0.748 0.34759,-1.59323 0.49706,-1.87829 0.14948,-0.28506 0.81676,-0.77748 1.48284,-1.09427 1.12716,-0.53607 1.63375,-0.54949 7.31164,-0.19368 4.48421,0.28101 6.94297,0.29081 9.28,0.037 1.74868,-0.18993 6.57208,-0.90551 10.71866,-1.59018 4.14658,-0.68467 8.25058,-1.24151 9.12,-1.23742 0.86942,0.004 4.89277,-0.43988 8.94077,-0.9866 4.048,-0.54672 8.656,-1.21773 10.24,-1.49114 1.584,-0.27341 4.104,-0.64664 5.6,-0.82942 1.496,-0.18277 3.68424,-0.38156 4.86276,-0.44175 1.17852,-0.0602 4.274528,-0.49498 6.879998,-0.96619 3.36286,-0.6082 5.94415,-0.8697 8.89724,-0.90136 2.43824,-0.0262 5.28576,-0.26874 6.88,-0.58616 1.496,-0.29787 4.448,-0.68697 6.56,-0.86468 2.112,-0.17772 5.208,-0.55669 6.88,-0.84217 1.672,-0.28548 4.38749,-0.94806 6.03442,-1.47241 1.94919,-0.62058 3.28734,-0.87985 3.83357,-0.74275 0.46153,0.11584 1.98985,0.20309 3.39626,0.1939 2.34467,-0.0153 2.631,0.0541 3.44643,0.83531 0.62719,0.60088 0.88932,1.16919 0.88932,1.92804 0,0.59181 -0.21084,1.48375 -0.46854,1.98208 -0.37727,0.72957 -0.75986,0.94974 -1.96414,1.13033 -0.82258,0.12336 -1.96901,0.45003 -2.54761,0.72595 -0.90991,0.43391 -1.49117,0.45173 -4.30345,0.13194 -1.78829,-0.20335 -3.3777,-0.2917 -3.53201,-0.19633 -0.15431,0.0954 -2.62589,0.25185 -5.49241,0.34774 -2.86651,0.0959 -5.64384,0.16042 -6.17184,0.14341 -0.528,-0.017 -2.256,0.12284 -3.84,0.31076 -1.584,0.18792 -3.96,0.545 -5.28,0.79351 -1.32,0.24851 -4.87314,0.60605 -7.89586,0.79452 -3.02272,0.18848 -7.34272,0.62275 -9.599998,0.96506 -2.25728,0.3423 -5.54414,0.83397 -7.30414,1.09259 -1.76,0.25862 -5.144,0.70112 -7.52,0.98335 -2.376,0.28222 -6.048,0.81574 -8.16,1.18559 -2.112,0.36986 -4.92,0.77231 -6.24,0.89434 -1.32,0.12202 -3.552,0.39819 -4.96,0.61372 -1.408,0.21552 -5.368,0.82021 -8.8,1.34376 -3.432,0.52355 -7.68,1.29992 -9.44,1.72529 -1.76,0.42536 -4.08792,0.91266 -5.17315,1.0829 -1.08523,0.17023 -2.40809,0.53444 -2.93971,0.80935 -0.53161,0.2749 -1.05619,0.64485 -1.16574,0.8221 -0.10955,0.17726 -0.44268,0.29367 -0.74029,0.2587 -0.29761,-0.035 -1.58467,-0.11327 -2.86014,-0.174 z m 26.15903,-24.94088 c -0.44,-0.0722 -1.232,-0.29162 -1.76,-0.48757 -0.528,-0.19594 -1.4451,-0.71361 -2.038,-1.15038 -0.64783,-0.47723 -1.44327,-1.5747 -1.99337,-2.75024 -0.50346,-1.07587 -1.06237,-2.73115 -1.24201,-3.67841 -0.17964,-0.94726 -0.32662,-2.41753 -0.32662,-3.26727 0,-0.84974 0.27664,-2.97209 0.61476,-4.71633 0.3848,-1.98502 1.17926,-4.47313 2.12381,-6.65134 0.82997,-1.914 2.19911,-4.86102 3.04252,-6.54893 0.84342,-1.687905 2.54063,-4.567905 3.7716,-6.399995 1.23096,-1.83209 4.10164,-5.491072 6.37929,-8.131072 2.27765,-2.64 5.56472,-6.174378 7.3046,-7.85417 1.73988,-1.679792 4.02742,-3.539843 5.08342,-4.133446 1.056,-0.593606 2.712,-1.622899 3.68,-2.287322 0.968,-0.664425 2.48,-1.379344 3.36,-1.58871 0.88,-0.209366 2.32,-0.740298 3.2,-1.179853 0.88,-0.439552 2.248,-0.969597 3.04,-1.177875 1.14184,-0.300282 1.68472,-0.702016 2.62194,-1.940256 0.65007,-0.858861 1.5719,-1.765878 2.0485,-2.015597 0.53283,-0.279177 1.348788,-0.389347 2.118768,-0.286073 0.68872,0.09238 2.02425,0.558572 2.96785,1.035987 0.94359,0.477414 2.19427,1.362201 2.77928,1.966192 0.95548,0.986477 1.06266,1.283453 1.05379,2.920048 -0.008,1.542189 -0.17809,2.066397 -1.10566,3.414576 -0.60269,0.875981 -1.84536,2.476265 -2.76149,3.556192 -0.91613,1.079923 -1.94947,2.52303 -2.29632,3.206902 -0.34684,0.683872 -1.14833,2.810928 -1.781078,4.726794 -0.63275,1.915862 -1.29078,4.291862 -1.4623,5.28 -0.17152,0.988134 -0.61351,3.524611 -0.98221,5.636611 -0.36869,2.112 -0.81584,4.631997 -0.99366,5.599997 -0.17781,0.968 -0.60323,3.38955 -0.94536,5.38122 -0.34213,1.99168 -0.61862,4.87168 -0.61442,6.4 0.004,1.52833 0.14028,3.35092 0.30241,4.05021 0.16213,0.69929 0.51869,1.43517 0.79237,1.63528 0.30316,0.22168 0.49689,0.85021 0.4958,1.60857 -9.6e-4,0.6846 -0.15387,1.7924 -0.33975,2.46178 -0.18588,0.66938 -0.7265,1.6519 -1.20137,2.18337 -0.73049,0.81756 -1.16381,0.99356 -2.81471,1.14326 -1.90189,0.17246 -1.98438,0.14705 -3.25814,-1.00372 -0.71877,-0.64936 -1.62202,-1.83172 -2.00724,-2.62747 -0.65955,-1.36244 -0.68711,-1.71501 -0.47261,-6.04542 0.12527,-2.52924 0.13433,-4.89301 0.0201,-5.25284 -0.11421,-0.35983 -0.34071,-0.65424 -0.50335,-0.65424 -0.16263,0 -0.75221,0.80889 -1.31016,1.79753 -0.55796,0.98865 -1.74719,2.54057 -2.64274,3.44873 -0.89555,0.90815 -2.58893,2.89474 -3.76306,4.41463 -1.17413,1.51989 -3.08383,3.54625 -4.24376,4.50302 -1.15994,0.95677 -3.44381,2.47905 -5.07528,3.38285 -1.68339,0.93257 -3.70743,1.78383 -4.67991,1.96826 -0.94249,0.17874 -2.08996,0.30537 -2.54994,0.2814 -0.45998,-0.024 -1.19632,-0.10266 -1.63632,-0.17488 z m 3.79919,-9.20044 c 0.48808,-0.2524 1.07664,-0.6869 1.30792,-0.96557 0.23127,-0.27867 1.42349,-1.03373 2.64938,-1.67791 1.5814,-0.83101 2.5215,-1.58493 3.23619,-2.59529 0.55403,-0.78323 1.7446,-2.23366 2.64572,-3.22319 0.90112,-0.98953 1.93071,-2.46886 2.28797,-3.28741 0.37949,-0.86948 0.92868,-1.57686 1.32085,-1.70133 0.37373,-0.11861 0.75999,-0.59368 0.8714,-1.07173 0.11006,-0.47227 0.82358,-1.50667 1.5856,-2.29867 0.76201,-0.792 1.75451,-2.27711 2.20555,-3.30024 0.45103,-1.02313 1.37764,-2.607133 2.05912,-3.52 0.68148,-0.912867 1.56354,-2.307757 1.96012,-3.099757 0.39659,-0.792 1.29255,-2.283299 1.99104,-3.313997 0.77325,-1.141033 1.33628,-2.392624 1.43953,-3.2 0.0933,-0.729302 0.42162,-1.830003 0.72969,-2.446003 0.30807,-0.616 0.78566,-1.880762 1.06132,-2.810586 0.27566,-0.92982 0.41966,-1.903062 0.32,-2.162761 -0.0996,-0.259696 -0.52782,-0.559175 -0.95148,-0.665507 -0.57665,-0.144733 -1.51295,0.251379 -3.7247,1.575769 -2.50434,1.499597 -3.88475,2.711616 -9.06143,7.956093 -4.51393,4.573037 -6.62074,6.972352 -8.07633,9.197622 -1.08312,1.655847 -2.69189,4.417337 -3.57504,6.136647 -0.88315,1.71931 -2.28855,4.90052 -3.12311,7.06937 -1.34449,3.49405 -1.51744,4.22886 -1.51794,6.44915 -3.2e-4,2.11153 0.0972,2.57726 0.6206,2.96 0.34164,0.24981 0.67279,0.4542 0.73589,0.4542 0.0631,0 0.51407,-0.20651 1.00214,-0.4589 z M 4.7973517,128.4668 c -0.55143,-0.35329 -1.37943,-1.21178 -1.84,-1.90775 -0.46057,-0.69596 -0.84228,-1.37648 -0.84825,-1.51225 -0.006,-0.13577 -0.28909,-0.82286 -0.62914,-1.52686 -0.34006,-0.704 -0.62317,-1.70082 -0.62915,-2.21516 -0.006,-0.51434 0.24115,-1.46679 0.54915,-2.11654 0.308,-0.64975 0.84239,-1.30893 1.18753,-1.46483 0.34515,-0.15591 0.90064,-0.7553 1.23443,-1.33198 0.44055,-0.76114 0.68885,-2.12053 0.90596,-4.96 0.21691,-2.83676 0.73445,-5.67225 1.8836,-10.31982 0.87149,-3.524585 1.67325,-7.556585 1.78169,-8.960003 0.10843,-1.403414 0.46026,-3.487664 0.78183,-4.631664 0.32157,-1.144 0.67843,-3.232 0.79303,-4.64 0.1170003,-1.437574 0.4893103,-3.191366 0.8491503,-4 0.41253,-0.927046 0.74346,-2.673875 0.929,-4.903814 0.19533,-2.347514 0.55827,-4.203818 1.12617,-5.76 0.46088,-1.262903 0.97635,-3.016186 1.14549,-3.896186 0.16914,-0.88 0.52266,-2.248 0.7856,-3.04 0.26294,-0.792 0.54857,-3.024 0.63473,-4.96 0.0862,-1.936 0.37533,-4.703626 0.64259,-6.150278 0.39421,-2.133773 0.41822,-3.077056 0.12717,-4.99713 -0.26821,-1.769405 -0.26559,-2.736925 0.0104,-3.832918 0.33218,-1.319236 0.30168,-1.560826 -0.3046,-2.412266 -0.37056,-0.520413 -0.67375,-1.031974 -0.67375,-1.136806 0,-0.104832 0.87636,-0.190602 1.94747,-0.190602 1.07111,0 2.90711,0.233888 4.08,0.519754 1.17289,0.285862 2.44925,0.639462 2.83636,0.785772 0.45276,0.171127 0.82394,0.712045 1.04051,1.516349 0.18518,0.68768 0.69645,1.780477 1.13617,2.428439 0.43972,0.647958 0.79949,1.510012 0.79949,1.915673 0,0.405658 -0.504,1.687296 -1.12,2.848083 -0.96901,1.825981 -1.12,2.409287 -1.12,4.326538 0,1.315088 -0.2534,3.009229 -0.62329,4.167082 -0.34281,1.073088 -0.78166,3.107708 -0.97522,4.521385 -0.19356,1.413677 -0.56387,3.254458 -0.82291,4.090624 -0.25903,0.836163 -0.67442,3.213872 -0.92308,5.283792 -0.24866,2.06992 -0.67788,4.216045 -0.95381,4.769165 -0.27593,0.55312 -0.50169,1.710701 -0.50169,2.5724 0,0.861699 -0.22414,2.000154 -0.49808,2.529901 -0.27394,0.529744 -0.91228,3.294595 -1.41853,6.144109 -0.50625,2.849513 -1.06628,6.044934 -1.2445,7.100934 -0.17823,1.056 -0.47552,3.144 -0.66067,4.64 -0.18514,1.496 -0.71191,4.231997 -1.17061,6.079997 -0.4587,1.848 -0.94942,5.016 -1.09049,7.04 -0.23117,3.31658 -0.19973,3.73889 0.31838,4.2763 0.49714,0.51566 0.7248,0.54683 1.68345,0.23045 0.60971,-0.20123 2.84977,-0.56993 4.97791,-0.81935 2.12814,-0.24942 4.31833,-0.68567 4.8671,-0.96945 0.68783,-0.35569 1.66225,-0.4911 3.1369,-0.4359 1.17653,0.044 3.07514,-0.0903 4.21914,-0.29857 1.144,-0.20826 2.77783,-0.37973 3.63074,-0.38106 0.85292,-0.001 2.34161,-0.23233 3.30822,-0.51333 1.50042,-0.43618 2.06927,-0.45325 3.88925,-0.11672 1.17248,0.21681 2.89867,0.67713 3.83597,1.02295 1.19206,0.43981 1.88889,0.93167 2.31881,1.63672 0.33804,0.55438 0.61515,1.44392 0.61581,1.97676 6.4e-4,0.53284 -0.1964,1.25284 -0.43792,1.6 -0.24151,0.34716 -0.54098,1.09933 -0.66549,1.6715 -0.16872,0.77533 -0.44403,1.09193 -1.08089,1.24298 -0.46998,0.11147 -1.0705,0.38005 -1.3345,0.59684 -0.264,0.21678 -1.23872,0.47898 -2.16605,0.58265 -1.36358,0.15246 -1.90308,0.0605 -2.82077,-0.48099 -1.06379,-0.62765 -1.41843,-0.65532 -5.67395,-0.44261 -2.49658,0.12479 -4.67603,0.36053 -4.84323,0.52386 -0.1672,0.16333 -1.06429,0.29697 -1.99353,0.29697 -0.92924,0 -2.23244,0.20978 -2.896,0.46617 -0.66356,0.25639 -2.12186,0.62551 -3.24066,0.82027 -1.1188,0.19477 -3.22824,0.70014 -4.68763,1.12306 -1.4594,0.42292 -3.40763,1.21362 -4.3294,1.75711 -0.92177,0.5435 -2.51623,1.41235 -3.54324,1.93078 -1.3725003,0.69284 -2.3148703,0.94118 -3.5564203,0.93722 -1.13754,-0.004 -2.01653,-0.21515 -2.69173,-0.64775 z M 110.91996,123.87852 c -1.496,-0.7757 -3.27724,-1.95338 -3.95831,-2.61708 -0.68107,-0.6637 -1.42337,-1.65105 -1.64955,-2.19411 -0.22618,-0.54306 -0.51201,-1.66287 -0.63518,-2.48844 -0.20001,-1.34064 -0.13643,-1.58858 0.595,-2.32 0.45042,-0.45043 1.09586,-0.81895 1.43431,-0.81895 0.33845,0 0.79815,-0.22024 1.02155,-0.48942 0.28398,-0.34218 0.42437,-2.00298 0.46661,-5.52 0.0417,-3.46887 0.27541,-6.27235 0.75293,-9.030577 0.38088,-2.2 0.69254,-4.805456 0.69258,-5.789904 3e-5,-0.984448 0.29625,-2.640448 0.65826,-3.68 0.36201,-1.039552 0.73619,-2.898096 0.83152,-4.130096 0.0953,-1.232 0.44643,-3.104 0.78024,-4.16 0.3338,-1.056 0.81784,-3.792 1.07564,-6.08 0.2578,-2.288 0.8345,-5.422176 1.28156,-6.964835 0.44706,-1.542659 0.81284,-3.491277 0.81284,-4.330263 0,-0.838985 0.21375,-2.312809 0.475,-3.275164 0.26125,-0.962356 0.9802,-3.71825 1.59767,-6.124208 0.61747,-2.405959 1.50196,-5.429959 1.96553,-6.72 0.46358,-1.290042 1.47541,-3.608199 2.24852,-5.15146 0.77311,-1.54326 1.94287,-3.401273 2.59947,-4.128918 0.65659,-0.727645 1.65719,-1.516976 2.22353,-1.75407 0.56635,-0.237095 1.6175,-0.431082 2.33589,-0.431082 0.7184,0 1.72859,0.218438 2.24486,0.485418 0.51629,0.266979 1.17291,0.938326 1.45916,1.491888 0.28626,0.553558 0.59619,1.841484 0.68873,2.862054 0.16826,1.855587 0.16826,1.855587 -2.12984,4.316368 -1.26396,1.35343 -2.64004,3.051066 -3.05796,3.772528 -0.41792,0.721459 -0.99622,2.103744 -1.28511,3.071744 -0.28888,0.968 -0.8151,2.552 -1.16936,3.52 -0.35426,0.968 -0.83128,2.12 -1.06004,2.56 -0.22875,0.44 -0.51596,1.52 -0.63824,2.4 -0.12227,0.88 -0.64065,3.832 -1.15195,6.56 -0.51129,2.728 -1.15322,6.150109 -1.4265,7.604685 -0.3895,2.073219 -0.4154,2.796893 -0.11988,3.349072 0.37697,0.704387 0.37697,0.704387 0.84778,-0.0047 0.25894,-0.389991 0.61348,-0.709072 0.78785,-0.709072 0.17438,0 0.82497,-0.396 1.44576,-0.88 0.62079,-0.484 2.00855,-1.762371 3.08392,-2.840826 1.07537,-1.078454 2.89121,-2.680413 4.03521,-3.559907 1.144,-0.879494 3.23125,-2.348074 4.63833,-3.263507 2.0593,-1.339757 2.7378,-1.628535 3.47835,-1.480423 0.50601,0.1012 1.58676,-0.04362 2.40167,-0.321836 1.08591,-0.37073 2.03721,-0.448688 3.56165,-0.291876 1.144,0.11768 2.6896,0.480298 3.43467,0.805815 0.74506,0.32552 1.8661,0.981949 2.49119,1.458726 0.62509,0.476781 2.01797,2.033939 3.09528,3.460352 1.07731,1.426416 2.24811,3.241482 2.60177,4.033482 0.49564,1.109952 0.67643,2.3568 0.78878,5.44 0.11698,3.210118 0.0433,4.244681 -0.37296,5.239078 -0.2853,0.681495 -0.51873,1.884256 -0.51873,2.6728 0,0.788544 -0.43926,2.75096 -0.97614,4.360922 -0.53688,1.609958 -1.88922,4.804086 -3.00521,7.098061 -1.11598,2.293961 -3.07803,5.749961 -4.36011,7.679991 -1.43804,2.16483 -3.44344,4.61461 -5.23479,6.39482 -1.75722,1.74628 -3.70454,3.32566 -4.93186,4 -1.11546,0.61288 -2.62746,1.58039 -3.36,2.15003 -0.73254,0.56965 -2.05189,1.53455 -2.93189,2.14424 -1.06506,0.73791 -2.66988,1.39756 -4.8,1.97302 -1.76,0.47547 -3.92,1.07365 -4.8,1.32928 -0.88,0.25563 -3.184,0.52371 -5.12,0.59573 -3.52,0.13095 -3.52,0.13095 -6.24,-1.2794 z m 11.15494,-7.24561 c 0.76723,-0.34813 1.63123,-0.633 1.92,-0.63304 0.28878,-4e-5 1.31706,-0.42633 2.28506,-0.94731 0.968,-0.52097 2.01078,-0.95294 2.31729,-0.95992 0.30651,-0.007 0.73715,-0.3007 0.95697,-0.6527 0.21983,-0.352 0.63102,-0.64 0.91375,-0.64 0.28274,0 0.84613,-0.288 1.25199,-0.64 0.40586,-0.352 0.9282,-0.64 1.16075,-0.64 0.23255,0 0.63348,-0.396 0.89097,-0.88 0.25748,-0.484 1.56534,-2.032 2.90634,-3.44 1.34101,-1.408 2.85723,-3.15496 3.36939,-3.88213 0.51215,-0.72718 1.72083,-2.81518 2.68595,-4.640001 0.96511,-1.824826 2.482,-5.013997 3.37086,-7.087044 0.88886,-2.073049 1.92011,-4.94198 2.29167,-6.375401 0.52009,-2.006439 0.64627,-3.274672 0.54827,-5.510823 -0.10241,-2.336614 -0.28148,-3.180643 -0.91575,-4.316252 -0.43365,-0.77641 -1.16714,-1.6916 -1.62998,-2.03376 -0.54505,-0.402928 -1.57603,-0.681066 -2.92628,-0.78945 -2.00775,-0.161165 -2.20777,-0.10696 -5.41643,1.467866 -2.80555,1.376976 -3.61312,1.953779 -5.11376,3.652467 -0.98013,1.109491 -2.29038,2.365561 -2.91165,2.791267 -0.62128,0.425706 -1.38804,1.212592 -1.70392,1.748637 -0.31588,0.536045 -1.17172,1.622627 -1.90187,2.414627 -0.73014,0.792 -2.19598,2.740624 -3.25742,4.330278 -1.06144,1.589655 -2.52231,4.068548 -3.24638,5.508656 -0.72407,1.440106 -1.60087,3.667479 -1.94844,4.949719 -0.34757,1.282244 -0.65197,3.195344 -0.67645,4.251344 -0.0245,1.056 0.0538,3 0.174,4.32 0.12017,1.32 0.44305,2.84328 0.71751,3.38508 0.41323,0.81575 0.44322,1.36579 0.17451,3.2 -0.17848,1.2182 -0.26141,2.32292 -0.18431,2.45492 0.0771,0.132 0.67169,0.23684 1.32131,0.23297 0.64961,-0.004 1.80883,-0.29186 2.57605,-0.64 z M 42.597362,58.98073 c -0.44561,-0.350515 -1.02971,-1.061792 -1.298,-1.580621 -0.39334,-0.760624 -0.4512,-1.700281 -0.29875,-4.851744 0.10399,-2.149632 0.32763,-4.772422 0.49698,-5.828422 0.16935,-1.056 0.45077,-3.144 0.62538,-4.64 0.17461,-1.496 0.40784,-2.936 0.51828,-3.2 0.11043,-0.264 0.3128,-1.776 0.4497,-3.36 0.1369,-1.584 0.35283,-3.492 0.47985,-4.24 0.2136,-1.257825 0.17807,-1.36 -0.47297,-1.36 -0.38715,0 -2.06584,0.451604 -3.73041,1.003564 -2.43661,0.807966 -3.22733,0.946203 -4.05697,0.709256 -0.71997,-0.205623 -1.34388,-0.772102 -2.07049,-1.879904 -0.572,-0.872078 -1.04,-1.846714 -1.04,-2.165858 0,-0.319144 0.324,-1.155899 0.72,-1.859454 0.72,-1.279193 0.72,-1.279193 3.6,-1.223798 1.584,0.03047 3.744,-0.11747 4.8,-0.328751 1.056,-0.21128 2.21885,-0.575946 2.58412,-0.810367 0.52422,-0.336431 0.75213,-1.022251 1.08188,-3.255455 0.22977,-1.556078 0.52854,-3.124811 0.66394,-3.486073 0.13572,-0.362105 0.0968,-0.92375 -0.0867,-1.251668 -0.27504,-0.491487 -0.14441,-0.750405 0.75194,-1.490345 0.59665,-0.492536 1.46166,-1.05482 1.92224,-1.249521 0.6792,-0.287116 1.01724,-0.244192 1.78912,0.227186 0.52343,0.319654 1.44259,1.013604 2.04257,1.542113 0.72857,0.641775 1.1074,1.272011 1.14061,1.897569 0.0317,0.596546 -0.34595,1.524201 -1.04,2.554803 -0.59934,0.889988 -1.08972,1.791029 -1.08972,2.002313 0,0.260558 0.38608,0.329894 1.2,0.215506 0.66,-0.09276 2.064,-0.438506 3.12,-0.768336 1.056,-0.329829 2.67325,-0.695073 3.5939,-0.811652 0.92065,-0.11658 1.59225,-0.344083 1.49245,-0.505563 -0.0998,-0.16148 -0.0275,-0.479175 0.1608,-0.705989 0.18824,-0.226814 0.62918,-2.344506 0.97988,-4.705982 0.3507,-2.361477 0.78305,-4.7895659 0.96079,-5.3957549 0.17773,-0.606188 0.23295,-1.869631 0.12271,-2.807651 -0.19906,-1.693701 -0.19092,-1.714285 1.17775,-2.977839 0.75801,-0.699792 1.55266,-1.272349 1.76588,-1.272349 0.21322,0 0.90847,0.217599 1.54498,0.483555 0.69605,0.290827 1.47687,0.989765 1.95909,1.753641 0.44097,0.698547 0.80122,1.740948 0.80056,2.316445 -6.6e-4,0.575497 -0.43212,1.910359 -0.95879,2.966359 -0.52668,1.056 -0.95814,2.3963089 -0.9588,2.9784649 -6.4e-4,0.582155 -0.27823,2.454155 -0.6168,4.16 -0.33858,1.705844 -0.78374,4.325535 -0.98924,5.821535 -0.2055,1.496 -0.57701,3.8 -0.82558,5.12 -0.24857,1.32 -0.53436,2.76 -0.63508,3.2 -0.18313,0.8 -0.18313,0.8 0.50426,0 0.37806,-0.44 1.145,-1.364227 1.70431,-2.053837 0.55931,-0.68961 1.48493,-1.72394 2.05693,-2.298511 0.572,-0.574571 1.04,-1.140444 1.04,-1.257496 0,-0.117052 1.35664,-1.755703 3.01475,-3.641447 1.65812,-1.885743 3.56612,-3.929992 4.24,-4.542774 0.67389,-0.612783 1.62514,-1.6433 2.1139,-2.290039 0.61192,-0.80971 1.30043,-1.286767 2.21095,-1.531947 0.72727,-0.195832 1.79713,-0.266979 2.37748,-0.158105 0.58251,0.10928 1.34809,0.570318 1.70905,1.02921 0.43833,0.557244 0.65387,1.305626 0.65387,2.27033 0,0.854566 -0.24816,1.844338 -0.61098,2.436845 -0.33604,0.548774 -0.91429,2.005771 -1.285,3.237771 -0.44381,1.474954 -0.75753,3.715446 -0.91853,6.56 -0.13448,2.376 -0.21945,8.064 -0.18882,12.64 0.0306,4.576 0.1836,9.688 0.33992,11.36 0.18537,1.982794 0.17209,3.23199 -0.0382,3.592064 -0.17733,0.303635 -1.06963,0.855331 -1.98288,1.225994 -1.32754,0.538809 -1.79629,0.601225 -2.33802,0.311302 -0.37266,-0.199443 -1.1129,-0.963587 -1.64498,-1.698099 -0.96741,-1.335472 -0.96741,-1.335472 -0.77069,-6.143367 0.1082,-2.644342 0.2288,-9.146736 0.268,-14.449763 0.0713,-9.641867 0.0713,-9.641867 -0.58394,-9.212554 -0.36037,0.236122 -1.16634,1.118963 -1.79106,1.961868 -0.62471,0.842905 -1.387,1.936299 -1.69398,2.429765 -0.30698,0.493465 -1.28457,1.699359 -2.17243,2.679765 -0.88786,0.980404 -1.82927,2.30466 -2.09202,2.942791 -0.26275,0.638128 -0.74097,1.448234 -1.0627,1.800234 -0.32174,0.352 -1.10647,1.565386 -1.74384,2.696413 -0.63738,1.131027 -1.42556,3.003027 -1.75152,4.16 -0.32597,1.156973 -0.74454,2.490832 -0.93017,2.964131 -0.18564,0.473299 -0.62294,1.013299 -0.9718,1.2 -0.34885,0.186701 -1.19222,0.339456 -1.87416,0.339456 -0.68193,0 -1.46106,-0.18 -1.73141,-0.4 -0.27035,-0.22 -0.78109,-0.832 -1.13497,-1.36 -0.35388,-0.528 -0.74049,-1.588093 -0.85912,-2.355763 -0.12487,-0.80801 -0.0795,-1.559802 0.1076,-1.785309 0.17781,-0.21425 0.47019,-1.962157 0.64973,-3.884237 0.17955,-1.92208 0.45808,-4.718691 0.61897,-6.214691 0.16088,-1.496 0.44878,-3.223049 0.63976,-3.837887 0.19099,-0.614838 0.34725,-1.514838 0.34725,-2 0,-0.485162 -0.0696,-0.882113 -0.15467,-0.882113 -0.0851,0 -1.77706,0.449467 -3.76,0.998816 -1.98293,0.549349 -4.03733,1.094433 -4.56533,1.211299 -0.82007,0.18151 -0.97077,0.374091 -1.03387,1.321184 -0.0406,0.609785 -0.23295,2.332701 -0.4274,3.828701 -0.19445,1.496 -0.56055,4.032304 -0.81354,5.636234 -0.253,1.603929 -0.66158,5.498038 -0.90797,8.653577 -0.32486,4.160643 -0.35685,6.164583 -0.1164,7.291997 0.23835,1.117536 0.22825,1.89952 -0.0359,2.7812 -0.20211,0.674602 -0.6144,1.353347 -0.9162,1.50832 -0.30179,0.154973 -1.15901,0.359392 -1.90492,0.454262 -1.05008,0.133556 -1.53908,0.02864 -2.1664,-0.464803 z m 53.96956,-15.9648 c -0.76617,-0.150643 -2.00642,-0.63336 -2.75611,-1.07271 -0.74969,-0.439347 -1.8054,-1.302595 -2.34603,-1.91833 -0.54062,-0.615734 -1.37705,-1.792019 -1.85875,-2.613968 -0.48169,-0.821949 -1.21635,-2.432646 -1.63258,-3.579328 -0.48353,-1.332126 -0.82757,-3.162834 -0.95288,-5.070493 -0.18845,-2.868797 -0.15795,-3.064183 0.77947,-4.993389 0.53657,-1.104273 1.07117,-2.465181 1.18801,-3.024239 0.11683,-0.559059 0.5633,-1.246378 0.99216,-1.527377 0.42886,-0.280999 0.77975,-0.727151 0.77975,-0.99145 0,-0.264299 0.36177,-0.618088 0.80393,-0.786198 0.44216,-0.16811 0.96801,-0.665778 1.16856,-1.105929 0.20055,-0.440151 0.63424,-0.885844 0.96376,-0.990429 0.32951,-0.104585 1.42366,-0.946053 2.43143,-1.869927 1.00777,-0.923876 2.52529,-2.010262 3.37225,-2.414192 0.846958,-0.40393 2.070958,-0.880543 2.719998,-1.0591399 0.64904,-0.178597 2.11062,-0.391049 3.24796,-0.472116 1.13735,-0.08107 2.61574,0.01674 3.28531,0.217352 0.66958,0.20061 1.68302,0.7638399 2.25211,1.2516219 0.56908,0.487783 1.59121,1.223242 2.2714,1.634355 0.71051,0.429435 1.42533,1.198892 1.68,1.808411 0.24381,0.583513 0.44329,1.326035 0.44329,1.650049 0,0.324014 -0.18595,0.843416 -0.41322,1.154227 -0.22727,0.310811 -2.20727,1.192119 -4.4,1.958462 -2.19273,0.766343 -4.77878,1.686865 -5.74678,2.045604 -0.968,0.358739 -2.15386,0.656954 -2.63524,0.662699 -0.48138,0.0057 -2.18004,0.443948 -3.774808,0.973783 -2.10288,0.698652 -3.05787,0.878612 -3.47574,0.654978 -0.38945,-0.20843 -0.69576,-0.188772 -0.94519,0.06066 -0.20296,0.202966 -0.36902,0.682594 -0.36902,1.065844 0,0.38325 -0.19631,0.859733 -0.43623,1.058852 -0.26533,0.220205 -0.52033,1.398615 -0.65092,3.008005 -0.16079,1.981676 -0.0946,2.986476 0.26383,4.002247 0.26319,0.745953 0.85566,1.850734 1.31661,2.45507 0.46096,0.604336 1.48378,1.411366 2.27296,1.793398 1.1611,0.56208 1.74576,0.653364 3.06435,0.478448 0.896208,-0.118886 2.018848,-0.41751 2.494748,-0.663603 0.47589,-0.246096 1.50236,-1.06663 2.28103,-1.823414 0.77867,-0.756781 1.5594,-1.879484 1.73496,-2.494894 0.29534,-1.035334 0.42408,-1.126476 1.72326,-1.219981 0.77224,-0.05558 1.70361,-0.0236 2.06973,0.07106 0.36612,0.09466 0.91767,0.619805 1.22567,1.166986 0.308,0.547182 0.56,1.259267 0.56,1.582413 0,0.323145 -0.273,1.211478 -0.60665,1.974067 -0.33366,0.762592 -1.30566,2.055923 -2.16,2.87407 -0.85435,0.818147 -2.56135,2.005843 -3.79335,2.639325 -1.232,0.633482 -3.01565,1.29609 -3.96368,1.472461 -0.94802,0.176371 -2.028018,0.304899 -2.399998,0.285613 -0.37198,-0.0193 -1.30319,-0.158311 -2.06936,-0.308951 z m 6.716988,-26.695618 c 1.81085,-0.615797 3.50862,-1.335797 3.77282,-1.6 0.26421,-0.264203 0.34151,-0.489561 0.1718,-0.500797 -0.16971,-0.01124 -0.77055,-0.06602 -1.3352,-0.121742 -0.6847,-0.06757 -1.653,0.232327 -2.90725,0.900428 -1.03435,0.550958 -2.30037,1.32118 -2.81338,1.711604 -0.513008,0.390425 -0.763658,0.714425 -0.556998,0.72 0.20667,0.0056 1.857358,-0.493696 3.668208,-1.109493 z"
     style="fill:#fefefe;stroke-width:0.31999999" />
  <path
     style="fill:#fefefe;stroke-width:0.31999999"
     d="m 33.880932,155.44236 c -2.24509,-0.1069 -2.33558,-0.14312 -2.83858,-1.13642 -0.28577,-0.5643 -0.74052,-1.278 -1.01058,-1.586 -0.27005,-0.308 -0.76935,-0.56 -1.10954,-0.56 -0.54969,0 -0.59345,-0.15137 -0.39324,-1.36 0.12391,-0.748 0.34759,-1.59323 0.49706,-1.87829 0.14948,-0.28506 0.81676,-0.77748 1.48284,-1.09427 1.12716,-0.53607 1.63375,-0.54949 7.31164,-0.19368 4.48421,0.28101 6.94297,0.29081 9.28,0.037 1.74868,-0.18993 6.57208,-0.90551 10.71866,-1.59018 4.14658,-0.68467 8.25058,-1.24151 9.12,-1.23742 0.86942,0.004 4.89277,-0.43988 8.94077,-0.9866 4.048,-0.54672 8.656,-1.21773 10.24,-1.49114 1.584,-0.27341 4.104,-0.64664 5.6,-0.82942 1.496,-0.18277 3.68424,-0.38156 4.86276,-0.44175 1.17852,-0.0602 4.274528,-0.49498 6.879998,-0.96619 3.36286,-0.6082 5.94415,-0.8697 8.89724,-0.90136 2.43824,-0.0262 5.28576,-0.26874 6.88,-0.58616 1.496,-0.29787 4.448,-0.68697 6.56,-0.86468 2.112,-0.17772 5.208,-0.55669 6.88,-0.84217 1.672,-0.28548 4.38749,-0.94806 6.03442,-1.47241 1.94919,-0.62058 3.28734,-0.87985 3.83357,-0.74275 0.46153,0.11584 1.98985,0.20309 3.39626,0.1939 2.34467,-0.0153 2.631,0.0541 3.44643,0.83531 0.62719,0.60088 0.88932,1.16919 0.88932,1.92804 0,0.59181 -0.21084,1.48375 -0.46854,1.98208 -0.37727,0.72957 -0.75986,0.94974 -1.96414,1.13033 -0.82258,0.12336 -1.96901,0.45003 -2.54761,0.72595 -0.90991,0.43391 -1.49117,0.45173 -4.30345,0.13194 -1.78829,-0.20335 -3.3777,-0.2917 -3.53201,-0.19633 -0.15431,0.0954 -2.62589,0.25185 -5.49241,0.34774 -2.86651,0.0959 -5.64384,0.16042 -6.17184,0.14341 -0.528,-0.017 -2.256,0.12284 -3.84,0.31076 -1.584,0.18792 -3.96,0.545 -5.28,0.79351 -1.32,0.24851 -4.87314,0.60605 -7.89586,0.79452 -3.02272,0.18848 -7.34272,0.62275 -9.599998,0.96506 -2.25728,0.3423 -5.54414,0.83397 -7.30414,1.09259 -1.76,0.25862 -5.144,0.70112 -7.52,0.98335 -2.376,0.28222 -6.048,0.81574 -8.16,1.18559 -2.112,0.36986 -4.92,0.77231 -6.24,0.89434 -1.32,0.12202 -3.552,0.39819 -4.96,0.61372 -1.408,0.21552 -5.368,0.82021 -8.8,1.34376 -3.432,0.52355 -7.68,1.29992 -9.44,1.72529 -1.76,0.42536 -4.08792,0.91266 -5.17315,1.0829 -1.08523,0.17023 -2.40809,0.53444 -2.93971,0.80935 -0.53161,0.2749 -1.05619,0.64485 -1.16574,0.8221 -0.10955,0.17726 -0.44268,0.29367 -0.74029,0.2587 -0.29761,-0.035 -1.58467,-0.11327 -2.86014,-0.174 z m 26.15903,-24.94088 c -0.44,-0.0722 -1.232,-0.29162 -1.76,-0.48757 -0.528,-0.19594 -1.4451,-0.71361 -2.038,-1.15038 -0.64783,-0.47723 -1.44327,-1.5747 -1.99337,-2.75024 -0.50346,-1.07587 -1.06237,-2.73115 -1.24201,-3.67841 -0.17964,-0.94726 -0.32662,-2.41753 -0.32662,-3.26727 0,-0.84974 0.27664,-2.97209 0.61476,-4.71633 0.3848,-1.98502 1.17926,-4.47313 2.12381,-6.65134 0.82997,-1.914 2.19911,-4.86102 3.04252,-6.54893 0.84342,-1.687905 2.54063,-4.567905 3.7716,-6.399995 1.23096,-1.83209 4.10164,-5.491072 6.37929,-8.131072 2.27765,-2.64 5.56472,-6.174378 7.3046,-7.85417 1.73988,-1.679792 4.02742,-3.539843 5.08342,-4.133446 1.056,-0.593606 2.712,-1.622899 3.68,-2.287322 0.968,-0.664425 2.48,-1.379344 3.36,-1.58871 0.88,-0.209366 2.32,-0.740298 3.2,-1.179853 0.88,-0.439552 2.248,-0.969597 3.04,-1.177875 1.14184,-0.300282 1.68472,-0.702016 2.62194,-1.940256 0.65007,-0.858861 1.5719,-1.765878 2.0485,-2.015597 0.53283,-0.279177 1.348788,-0.389347 2.118768,-0.286073 0.68872,0.09238 2.02425,0.558572 2.96785,1.035987 0.94359,0.477414 2.19427,1.362201 2.77928,1.966192 0.95548,0.986477 1.06266,1.283453 1.05379,2.920048 -0.008,1.542189 -0.17809,2.066397 -1.10566,3.414576 -0.60269,0.875981 -1.84536,2.476265 -2.76149,3.556192 -0.91613,1.079923 -1.94947,2.52303 -2.29632,3.206902 -0.34684,0.683872 -1.14833,2.810928 -1.781078,4.726794 -0.63275,1.915862 -1.29078,4.291862 -1.4623,5.28 -0.17152,0.988134 -0.61351,3.524611 -0.98221,5.636611 -0.36869,2.112 -0.81584,4.631997 -0.99366,5.599997 -0.17781,0.968 -0.60323,3.38955 -0.94536,5.38122 -0.34213,1.99168 -0.61862,4.87168 -0.61442,6.4 0.004,1.52833 0.14028,3.35092 0.30241,4.05021 0.16213,0.69929 0.51869,1.43517 0.79237,1.63528 0.30316,0.22168 0.49689,0.85021 0.4958,1.60857 -9.6e-4,0.6846 -0.15387,1.7924 -0.33975,2.46178 -0.18588,0.66938 -0.7265,1.6519 -1.20137,2.18337 -0.73049,0.81756 -1.16381,0.99356 -2.81471,1.14326 -1.90189,0.17246 -1.98438,0.14705 -3.25814,-1.00372 -0.71877,-0.64936 -1.62202,-1.83172 -2.00724,-2.62747 -0.65955,-1.36244 -0.68711,-1.71501 -0.47261,-6.04542 0.12527,-2.52924 0.13433,-4.89301 0.0201,-5.25284 -0.11421,-0.35983 -0.34071,-0.65424 -0.50335,-0.65424 -0.16263,0 -0.75221,0.80889 -1.31016,1.79753 -0.55796,0.98865 -1.74719,2.54057 -2.64274,3.44873 -0.89555,0.90815 -2.58893,2.89474 -3.76306,4.41463 -1.17413,1.51989 -3.08383,3.54625 -4.24376,4.50302 -1.15994,0.95677 -3.44381,2.47905 -5.07528,3.38285 -1.68339,0.93257 -3.70743,1.78383 -4.67991,1.96826 -0.94249,0.17874 -2.08996,0.30537 -2.54994,0.2814 -0.45998,-0.024 -1.19632,-0.10266 -1.63632,-0.17488 z m 3.79919,-9.20044 c 0.48808,-0.2524 1.07664,-0.6869 1.30792,-0.96557 0.23127,-0.27867 1.42349,-1.03373 2.64938,-1.67791 1.5814,-0.83101 2.5215,-1.58493 3.23619,-2.59529 0.55403,-0.78323 1.7446,-2.23366 2.64572,-3.22319 0.90112,-0.98953 1.93071,-2.46886 2.28797,-3.28741 0.37949,-0.86948 0.92868,-1.57686 1.32085,-1.70133 0.37373,-0.11861 0.75999,-0.59368 0.8714,-1.07173 0.11006,-0.47227 0.82358,-1.50667 1.5856,-2.29867 0.76201,-0.792 1.75451,-2.27711 2.20555,-3.30024 0.45103,-1.02313 1.37764,-2.607133 2.05912,-3.52 0.68148,-0.912867 1.56354,-2.307757 1.96012,-3.099757 0.39659,-0.792 1.29255,-2.283299 1.99104,-3.313997 0.77325,-1.141033 1.33628,-2.392624 1.43953,-3.2 0.0933,-0.729302 0.42162,-1.830003 0.72969,-2.446003 0.30807,-0.616 0.78566,-1.880762 1.06132,-2.810586 0.27566,-0.92982 0.41966,-1.903062 0.32,-2.162761 -0.0996,-0.259696 -0.52782,-0.559175 -0.95148,-0.665507 -0.57665,-0.144733 -1.51295,0.251379 -3.7247,1.575769 -2.50434,1.499597 -3.88475,2.711616 -9.06143,7.956093 -4.51393,4.573037 -6.62074,6.972352 -8.07633,9.197622 -1.08312,1.655847 -2.69189,4.417337 -3.57504,6.136647 -0.88315,1.71931 -2.28855,4.90052 -3.12311,7.06937 -1.34449,3.49405 -1.51744,4.22886 -1.51794,6.44915 -3.2e-4,2.11153 0.0972,2.57726 0.6206,2.96 0.34164,0.24981 0.67279,0.4542 0.73589,0.4542 0.0631,0 0.51407,-0.20651 1.00214,-0.4589 z M 4.7973517,128.4668 c -0.55143,-0.35329 -1.37943,-1.21178 -1.84,-1.90775 -0.46057,-0.69596 -0.84228,-1.37648 -0.84825,-1.51225 -0.006,-0.13577 -0.28909,-0.82286 -0.62914,-1.52686 -0.34006,-0.704 -0.62317,-1.70082 -0.62915,-2.21516 -0.006,-0.51434 0.24115,-1.46679 0.54915,-2.11654 0.308,-0.64975 0.84239,-1.30893 1.18753,-1.46483 0.34515,-0.15591 0.90064,-0.7553 1.23443,-1.33198 0.44055,-0.76114 0.68885,-2.12053 0.90596,-4.96 0.21691,-2.83676 0.73445,-5.67225 1.8836,-10.31982 0.87149,-3.524585 1.67325,-7.556585 1.78169,-8.960003 0.10843,-1.403414 0.46026,-3.487664 0.78183,-4.631664 0.32157,-1.144 0.67843,-3.232 0.79303,-4.64 0.1170003,-1.437574 0.4893103,-3.191366 0.8491503,-4 0.41253,-0.927046 0.74346,-2.673875 0.929,-4.903814 0.19533,-2.347514 0.55827,-4.203818 1.12617,-5.76 0.46088,-1.262903 0.97635,-3.016186 1.14549,-3.896186 0.16914,-0.88 0.52266,-2.248 0.7856,-3.04 0.26294,-0.792 0.54857,-3.024 0.63473,-4.96 0.0862,-1.936 0.37533,-4.703626 0.64259,-6.150278 0.39421,-2.133773 0.41822,-3.077056 0.12717,-4.99713 -0.26821,-1.769405 -0.26559,-2.736925 0.0104,-3.832918 0.33218,-1.319236 0.30168,-1.560826 -0.3046,-2.412266 -0.37056,-0.520413 -0.67375,-1.031974 -0.67375,-1.136806 0,-0.104832 0.87636,-0.190602 1.94747,-0.190602 1.07111,0 2.90711,0.233888 4.08,0.519754 1.17289,0.285862 2.44925,0.639462 2.83636,0.785772 0.45276,0.171127 0.82394,0.712045 1.04051,1.516349 0.18518,0.68768 0.69645,1.780477 1.13617,2.428439 0.43972,0.647958 0.79949,1.510012 0.79949,1.915673 0,0.405658 -0.504,1.687296 -1.12,2.848083 -0.96901,1.825981 -1.12,2.409287 -1.12,4.326538 0,1.315088 -0.2534,3.009229 -0.62329,4.167082 -0.34281,1.073088 -0.78166,3.107708 -0.97522,4.521385 -0.19356,1.413677 -0.56387,3.254458 -0.82291,4.090624 -0.25903,0.836163 -0.67442,3.213872 -0.92308,5.283792 -0.24866,2.06992 -0.67788,4.216045 -0.95381,4.769165 -0.27593,0.55312 -0.50169,1.710701 -0.50169,2.5724 0,0.861699 -0.22414,2.000154 -0.49808,2.529901 -0.27394,0.529744 -0.91228,3.294595 -1.41853,6.144109 -0.50625,2.849513 -1.06628,6.044934 -1.2445,7.100934 -0.17823,1.056 -0.47552,3.144 -0.66067,4.64 -0.18514,1.496 -0.71191,4.231997 -1.17061,6.079997 -0.4587,1.848 -0.94942,5.016 -1.09049,7.04 -0.23117,3.31658 -0.19973,3.73889 0.31838,4.2763 0.49714,0.51566 0.7248,0.54683 1.68345,0.23045 0.60971,-0.20123 2.84977,-0.56993 4.97791,-0.81935 2.12814,-0.24942 4.31833,-0.68567 4.8671,-0.96945 0.68783,-0.35569 1.66225,-0.4911 3.1369,-0.4359 1.17653,0.044 3.07514,-0.0903 4.21914,-0.29857 1.144,-0.20826 2.77783,-0.37973 3.63074,-0.38106 0.85292,-0.001 2.34161,-0.23233 3.30822,-0.51333 1.50042,-0.43618 2.06927,-0.45325 3.88925,-0.11672 1.17248,0.21681 2.89867,0.67713 3.83597,1.02295 1.19206,0.43981 1.88889,0.93167 2.31881,1.63672 0.33804,0.55438 0.61515,1.44392 0.61581,1.97676 6.4e-4,0.53284 -0.1964,1.25284 -0.43792,1.6 -0.24151,0.34716 -0.54098,1.09933 -0.66549,1.6715 -0.16872,0.77533 -0.44403,1.09193 -1.08089,1.24298 -0.46998,0.11147 -1.0705,0.38005 -1.3345,0.59684 -0.264,0.21678 -1.23872,0.47898 -2.16605,0.58265 -1.36358,0.15246 -1.90308,0.0605 -2.82077,-0.48099 -1.06379,-0.62765 -1.41843,-0.65532 -5.67395,-0.44261 -2.49658,0.12479 -4.67603,0.36053 -4.84323,0.52386 -0.1672,0.16333 -1.06429,0.29697 -1.99353,0.29697 -0.92924,0 -2.23244,0.20978 -2.896,0.46617 -0.66356,0.25639 -2.12186,0.62551 -3.24066,0.82027 -1.1188,0.19477 -3.22824,0.70014 -4.68763,1.12306 -1.4594,0.42292 -3.40763,1.21362 -4.3294,1.75711 -0.92177,0.5435 -2.51623,1.41235 -3.54324,1.93078 -1.3725003,0.69284 -2.3148703,0.94118 -3.5564203,0.93722 -1.13754,-0.004 -2.01653,-0.21515 -2.69173,-0.64775 z M 110.91996,123.87852 c -1.496,-0.7757 -3.27724,-1.95338 -3.95831,-2.61708 -0.68107,-0.6637 -1.42337,-1.65105 -1.64955,-2.19411 -0.22618,-0.54306 -0.51201,-1.66287 -0.63518,-2.48844 -0.20001,-1.34064 -0.13643,-1.58858 0.595,-2.32 0.45042,-0.45043 1.09586,-0.81895 1.43431,-0.81895 0.33845,0 0.79815,-0.22024 1.02155,-0.48942 0.28398,-0.34218 0.42437,-2.00298 0.46661,-5.52 0.0417,-3.46887 0.27541,-6.27235 0.75293,-9.030577 0.38088,-2.2 0.69254,-4.805456 0.69258,-5.789904 3e-5,-0.984448 0.29625,-2.640448 0.65826,-3.68 0.36201,-1.039552 0.73619,-2.898096 0.83152,-4.130096 0.0953,-1.232 0.44643,-3.104 0.78024,-4.16 0.3338,-1.056 0.81784,-3.792 1.07564,-6.08 0.2578,-2.288 0.8345,-5.422176 1.28156,-6.964835 0.44706,-1.542659 0.81284,-3.491277 0.81284,-4.330263 0,-0.838985 0.21375,-2.312809 0.475,-3.275164 0.26125,-0.962356 0.9802,-3.71825 1.59767,-6.124208 0.61747,-2.405959 1.50196,-5.429959 1.96553,-6.72 0.46358,-1.290042 1.47541,-3.608199 2.24852,-5.15146 0.77311,-1.54326 1.94287,-3.401273 2.59947,-4.128918 0.65659,-0.727645 1.65719,-1.516976 2.22353,-1.75407 0.56635,-0.237095 1.6175,-0.431082 2.33589,-0.431082 0.7184,0 1.72859,0.218438 2.24486,0.485418 0.51629,0.266979 1.17291,0.938326 1.45916,1.491888 0.28626,0.553558 0.59619,1.841484 0.68873,2.862054 0.16826,1.855587 0.16826,1.855587 -2.12984,4.316368 -1.26396,1.35343 -2.64004,3.051066 -3.05796,3.772528 -0.41792,0.721459 -0.99622,2.103744 -1.28511,3.071744 -0.28888,0.968 -0.8151,2.552 -1.16936,3.52 -0.35426,0.968 -0.83128,2.12 -1.06004,2.56 -0.22875,0.44 -0.51596,1.52 -0.63824,2.4 -0.12227,0.88 -0.64065,3.832 -1.15195,6.56 -0.51129,2.728 -1.15322,6.150109 -1.4265,7.604685 -0.3895,2.073219 -0.4154,2.796893 -0.11988,3.349072 0.37697,0.704387 0.37697,0.704387 0.84778,-0.0047 0.25894,-0.389991 0.61348,-0.709072 0.78785,-0.709072 0.17438,0 0.82497,-0.396 1.44576,-0.88 0.62079,-0.484 2.00855,-1.762371 3.08392,-2.840826 1.07537,-1.078454 2.89121,-2.680413 4.03521,-3.559907 1.144,-0.879494 3.23125,-2.348074 4.63833,-3.263507 2.0593,-1.339757 2.7378,-1.628535 3.47835,-1.480423 0.50601,0.1012 1.58676,-0.04362 2.40167,-0.321836 1.08591,-0.37073 2.03721,-0.448688 3.56165,-0.291876 1.144,0.11768 2.6896,0.480298 3.43467,0.805815 0.74506,0.32552 1.8661,0.981949 2.49119,1.458726 0.62509,0.476781 2.01797,2.033939 3.09528,3.460352 1.07731,1.426416 2.24811,3.241482 2.60177,4.033482 0.49564,1.109952 0.67643,2.3568 0.78878,5.44 0.11698,3.210118 0.0433,4.244681 -0.37296,5.239078 -0.2853,0.681495 -0.51873,1.884256 -0.51873,2.6728 0,0.788544 -0.43926,2.75096 -0.97614,4.360922 -0.53688,1.609958 -1.88922,4.804086 -3.00521,7.098061 -1.11598,2.293961 -3.07803,5.749961 -4.36011,7.679991 -1.43804,2.16483 -3.44344,4.61461 -5.23479,6.39482 -1.75722,1.74628 -3.70454,3.32566 -4.93186,4 -1.11546,0.61288 -2.62746,1.58039 -3.36,2.15003 -0.73254,0.56965 -2.05189,1.53455 -2.93189,2.14424 -1.06506,0.73791 -2.66988,1.39756 -4.8,1.97302 -1.76,0.47547 -3.92,1.07365 -4.8,1.32928 -0.88,0.25563 -3.184,0.52371 -5.12,0.59573 -3.52,0.13095 -3.52,0.13095 -6.24,-1.2794 z m 11.15494,-7.24561 c 0.76723,-0.34813 1.63123,-0.633 1.92,-0.63304 0.28878,-4e-5 1.31706,-0.42633 2.28506,-0.94731 0.968,-0.52097 2.01078,-0.95294 2.31729,-0.95992 0.30651,-0.007 0.73715,-0.3007 0.95697,-0.6527 0.21983,-0.352 0.63102,-0.64 0.91375,-0.64 0.28274,0 0.84613,-0.288 1.25199,-0.64 0.40586,-0.352 0.9282,-0.64 1.16075,-0.64 0.23255,0 0.63348,-0.396 0.89097,-0.88 0.25748,-0.484 1.56534,-2.032 2.90634,-3.44 1.34101,-1.408 2.85723,-3.15496 3.36939,-3.88213 0.51215,-0.72718 1.72083,-2.81518 2.68595,-4.640001 0.96511,-1.824826 2.482,-5.013997 3.37086,-7.087044 0.88886,-2.073049 1.92011,-4.94198 2.29167,-6.375401 0.52009,-2.006439 0.64627,-3.274672 0.54827,-5.510823 -0.10241,-2.336614 -0.28148,-3.180643 -0.91575,-4.316252 -0.43365,-0.77641 -1.16714,-1.6916 -1.62998,-2.03376 -0.54505,-0.402928 -1.57603,-0.681066 -2.92628,-0.78945 -2.00775,-0.161165 -2.20777,-0.10696 -5.41643,1.467866 -2.80555,1.376976 -3.61312,1.953779 -5.11376,3.652467 -0.98013,1.109491 -2.29038,2.365561 -2.91165,2.791267 -0.62128,0.425706 -1.38804,1.212592 -1.70392,1.748637 -0.31588,0.536045 -1.17172,1.622627 -1.90187,2.414627 -0.73014,0.792 -2.19598,2.740624 -3.25742,4.330278 -1.06144,1.589655 -2.52231,4.068548 -3.24638,5.508656 -0.72407,1.440106 -1.60087,3.667479 -1.94844,4.949719 -0.34757,1.282244 -0.65197,3.195344 -0.67645,4.251344 -0.0245,1.056 0.0538,3 0.174,4.32 0.12017,1.32 0.44305,2.84328 0.71751,3.38508 0.41323,0.81575 0.44322,1.36579 0.17451,3.2 -0.17848,1.2182 -0.26141,2.32292 -0.18431,2.45492 0.0771,0.132 0.67169,0.23684 1.32131,0.23297 0.64961,-0.004 1.80883,-0.29186 2.57605,-0.64 z M 42.597362,58.98073 c -0.44561,-0.350515 -1.02971,-1.061792 -1.298,-1.580621 -0.39334,-0.760624 -0.4512,-1.700281 -0.29875,-4.851744 0.10399,-2.149632 0.32763,-4.772422 0.49698,-5.828422 0.16935,-1.056 0.45077,-3.144 0.62538,-4.64 0.17461,-1.496 0.40784,-2.936 0.51828,-3.2 0.11043,-0.264 0.3128,-1.776 0.4497,-3.36 0.1369,-1.584 0.35283,-3.492 0.47985,-4.24 0.2136,-1.257825 0.17807,-1.36 -0.47297,-1.36 -0.38715,0 -2.06584,0.451604 -3.73041,1.003564 -2.43661,0.807966 -3.22733,0.946203 -4.05697,0.709256 -0.71997,-0.205623 -1.34388,-0.772102 -2.07049,-1.879904 -0.572,-0.872078 -1.04,-1.846714 -1.04,-2.165858 0,-0.319144 0.324,-1.155899 0.72,-1.859454 0.72,-1.279193 0.72,-1.279193 3.6,-1.223798 1.584,0.03047 3.744,-0.11747 4.8,-0.328751 1.056,-0.21128 2.21885,-0.575946 2.58412,-0.810367 0.52422,-0.336431 0.75213,-1.022251 1.08188,-3.255455 0.22977,-1.556078 0.52854,-3.124811 0.66394,-3.486073 0.13572,-0.362105 0.0968,-0.92375 -0.0867,-1.251668 -0.27504,-0.491487 -0.14441,-0.750405 0.75194,-1.490345 0.59665,-0.492536 1.46166,-1.05482 1.92224,-1.249521 0.6792,-0.287116 1.01724,-0.244192 1.78912,0.227186 0.52343,0.319654 1.44259,1.013604 2.04257,1.542113 0.72857,0.641775 1.1074,1.272011 1.14061,1.897569 0.0317,0.596546 -0.34595,1.524201 -1.04,2.554803 -0.59934,0.889988 -1.08972,1.791029 -1.08972,2.002313 0,0.260558 0.38608,0.329894 1.2,0.215506 0.66,-0.09276 2.064,-0.438506 3.12,-0.768336 1.056,-0.329829 2.67325,-0.695073 3.5939,-0.811652 0.92065,-0.11658 1.59225,-0.344083 1.49245,-0.505563 -0.0998,-0.16148 -0.0275,-0.479175 0.1608,-0.705989 0.18824,-0.226814 0.62918,-2.344506 0.97988,-4.705982 0.3507,-2.361477 0.78305,-4.7895659 0.96079,-5.3957549 0.17773,-0.606188 0.23295,-1.869631 0.12271,-2.807651 -0.19906,-1.693701 -0.19092,-1.714285 1.17775,-2.977839 0.75801,-0.699792 1.55266,-1.272349 1.76588,-1.272349 0.21322,0 0.90847,0.217599 1.54498,0.483555 0.69605,0.290827 1.47687,0.989765 1.95909,1.753641 0.44097,0.698547 0.80122,1.740948 0.80056,2.316445 -6.6e-4,0.575497 -0.43212,1.910359 -0.95879,2.966359 -0.52668,1.056 -0.95814,2.3963089 -0.9588,2.9784649 -6.4e-4,0.582155 -0.27823,2.454155 -0.6168,4.16 -0.33858,1.705844 -0.78374,4.325535 -0.98924,5.821535 -0.2055,1.496 -0.57701,3.8 -0.82558,5.12 -0.24857,1.32 -0.53436,2.76 -0.63508,3.2 -0.18313,0.8 -0.18313,0.8 0.50426,0 0.37806,-0.44 1.145,-1.364227 1.70431,-2.053837 0.55931,-0.68961 1.48493,-1.72394 2.05693,-2.298511 0.572,-0.574571 1.04,-1.140444 1.04,-1.257496 0,-0.117052 1.35664,-1.755703 3.01475,-3.641447 1.65812,-1.885743 3.56612,-3.929992 4.24,-4.542774 0.67389,-0.612783 1.62514,-1.6433 2.1139,-2.290039 0.61192,-0.80971 1.30043,-1.286767 2.21095,-1.531947 0.72727,-0.195832 1.79713,-0.266979 2.37748,-0.158105 0.58251,0.10928 1.34809,0.570318 1.70905,1.02921 0.43833,0.557244 0.65387,1.305626 0.65387,2.27033 0,0.854566 -0.24816,1.844338 -0.61098,2.436845 -0.33604,0.548774 -0.91429,2.005771 -1.285,3.237771 -0.44381,1.474954 -0.75753,3.715446 -0.91853,6.56 -0.13448,2.376 -0.21945,8.064 -0.18882,12.64 0.0306,4.576 0.1836,9.688 0.33992,11.36 0.18537,1.982794 0.17209,3.23199 -0.0382,3.592064 -0.17733,0.303635 -1.06963,0.855331 -1.98288,1.225994 -1.32754,0.538809 -1.79629,0.601225 -2.33802,0.311302 -0.37266,-0.199443 -1.1129,-0.963587 -1.64498,-1.698099 -0.96741,-1.335472 -0.96741,-1.335472 -0.77069,-6.143367 0.1082,-2.644342 0.2288,-9.146736 0.268,-14.449763 0.0713,-9.641867 0.0713,-9.641867 -0.58394,-9.212554 -0.36037,0.236122 -1.16634,1.118963 -1.79106,1.961868 -0.62471,0.842905 -1.387,1.936299 -1.69398,2.429765 -0.30698,0.493465 -1.28457,1.699359 -2.17243,2.679765 -0.88786,0.980404 -1.82927,2.30466 -2.09202,2.942791 -0.26275,0.638128 -0.74097,1.448234 -1.0627,1.800234 -0.32174,0.352 -1.10647,1.565386 -1.74384,2.696413 -0.63738,1.131027 -1.42556,3.003027 -1.75152,4.16 -0.32597,1.156973 -0.74454,2.490832 -0.93017,2.964131 -0.18564,0.473299 -0.62294,1.013299 -0.9718,1.2 -0.34885,0.186701 -1.19222,0.339456 -1.87416,0.339456 -0.68193,0 -1.46106,-0.18 -1.73141,-0.4 -0.27035,-0.22 -0.78109,-0.832 -1.13497,-1.36 -0.35388,-0.528 -0.74049,-1.588093 -0.85912,-2.355763 -0.12487,-0.80801 -0.0795,-1.559802 0.1076,-1.785309 0.17781,-0.21425 0.47019,-1.962157 0.64973,-3.884237 0.17955,-1.92208 0.45808,-4.718691 0.61897,-6.214691 0.16088,-1.496 0.44878,-3.223049 0.63976,-3.837887 0.19099,-0.614838 0.34725,-1.514838 0.34725,-2 0,-0.485162 -0.0696,-0.882113 -0.15467,-0.882113 -0.0851,0 -1.77706,0.449467 -3.76,0.998816 -1.98293,0.549349 -4.03733,1.094433 -4.56533,1.211299 -0.82007,0.18151 -0.97077,0.374091 -1.03387,1.321184 -0.0406,0.609785 -0.23295,2.332701 -0.4274,3.828701 -0.19445,1.496 -0.56055,4.032304 -0.81354,5.636234 -0.253,1.603929 -0.66158,5.498038 -0.90797,8.653577 -0.32486,4.160643 -0.35685,6.164583 -0.1164,7.291997 0.23835,1.117536 0.22825,1.89952 -0.0359,2.7812 -0.20211,0.674602 -0.6144,1.353347 -0.9162,1.50832 -0.30179,0.154973 -1.15901,0.359392 -1.90492,0.454262 -1.05008,0.133556 -1.53908,0.02864 -2.1664,-0.464803 z m 53.96956,-15.9648 c -0.76617,-0.150643 -2.00642,-0.63336 -2.75611,-1.07271 -0.74969,-0.439347 -1.8054,-1.302595 -2.34603,-1.91833 -0.54062,-0.615734 -1.37705,-1.792019 -1.85875,-2.613968 -0.48169,-0.821949 -1.21635,-2.432646 -1.63258,-3.579328 -0.48353,-1.332126 -0.82757,-3.162834 -0.95288,-5.070493 -0.18845,-2.868797 -0.15795,-3.064183 0.77947,-4.993389 0.53657,-1.104273 1.07117,-2.465181 1.18801,-3.024239 0.11683,-0.559059 0.5633,-1.246378 0.99216,-1.527377 0.42886,-0.280999 0.77975,-0.727151 0.77975,-0.99145 0,-0.264299 0.36177,-0.618088 0.80393,-0.786198 0.44216,-0.16811 0.96801,-0.665778 1.16856,-1.105929 0.20055,-0.440151 0.63424,-0.885844 0.96376,-0.990429 0.32951,-0.104585 1.42366,-0.946053 2.43143,-1.869927 1.00777,-0.923876 2.52529,-2.010262 3.37225,-2.414192 0.846958,-0.40393 2.070958,-0.880543 2.719998,-1.0591399 0.64904,-0.178597 2.11062,-0.391049 3.24796,-0.472116 1.13735,-0.08107 2.61574,0.01674 3.28531,0.217352 0.66958,0.20061 1.68302,0.7638399 2.25211,1.2516219 0.56908,0.487783 1.59121,1.223242 2.2714,1.634355 0.71051,0.429435 1.42533,1.198892 1.68,1.808411 0.24381,0.583513 0.44329,1.326035 0.44329,1.650049 0,0.324014 -0.18595,0.843416 -0.41322,1.154227 -0.22727,0.310811 -2.20727,1.192119 -4.4,1.958462 -2.19273,0.766343 -4.77878,1.686865 -5.74678,2.045604 -0.968,0.358739 -2.15386,0.656954 -2.63524,0.662699 -0.48138,0.0057 -2.18004,0.443948 -3.774808,0.973783 -2.10288,0.698652 -3.05787,0.878612 -3.47574,0.654978 -0.38945,-0.20843 -0.69576,-0.188772 -0.94519,0.06066 -0.20296,0.202966 -0.36902,0.682594 -0.36902,1.065844 0,0.38325 -0.19631,0.859733 -0.43623,1.058852 -0.26533,0.220205 -0.52033,1.398615 -0.65092,3.008005 -0.16079,1.981676 -0.0946,2.986476 0.26383,4.002247 0.26319,0.745953 0.85566,1.850734 1.31661,2.45507 0.46096,0.604336 1.48378,1.411366 2.27296,1.793398 1.1611,0.56208 1.74576,0.653364 3.06435,0.478448 0.896208,-0.118886 2.018848,-0.41751 2.494748,-0.663603 0.47589,-0.246096 1.50236,-1.06663 2.28103,-1.823414 0.77867,-0.756781 1.5594,-1.879484 1.73496,-2.494894 0.29534,-1.035334 0.42408,-1.126476 1.72326,-1.219981 0.77224,-0.05558 1.70361,-0.0236 2.06973,0.07106 0.36612,0.09466 0.91767,0.619805 1.22567,1.166986 0.308,0.547182 0.56,1.259267 0.56,1.582413 0,0.323145 -0.273,1.211478 -0.60665,1.974067 -0.33366,0.762592 -1.30566,2.055923 -2.16,2.87407 -0.85435,0.818147 -2.56135,2.005843 -3.79335,2.639325 -1.232,0.633482 -3.01565,1.29609 -3.96368,1.472461 -0.94802,0.176371 -2.028018,0.304899 -2.399998,0.285613 -0.37198,-0.0193 -1.30319,-0.158311 -2.06936,-0.308951 z m 6.716988,-26.695618 c 1.81085,-0.615797 3.50862,-1.335797 3.77282,-1.6 0.26421,-0.264203 0.34151,-0.489561 0.1718,-0.500797 -0.16971,-0.01124 -0.77055,-0.06602 -1.3352,-0.121742 -0.6847,-0.06757 -1.653,0.232327 -2.90725,0.900428 -1.03435,0.550958 -2.30037,1.32118 -2.81338,1.711604 -0.513008,0.390425 -0.763658,0.714425 -0.556998,0.72 0.20667,0.0056 1.857358,-0.493696 3.668208,-1.109493 z"
     id="path3908" />
</svg>
